<svg xmlns="http://www.w3.org/2000/svg" viewBox="0 0 327.5 441.68"><defs><style>.cls-1,.cls-7{fill:#fff;}.cls-1,.cls-2,.cls-3,.cls-6,.cls-8,.cls-9{stroke:#000;stroke-miterlimit:10;}.cls-2{fill:#fef7da;}.cls-3,.cls-6{fill:none;}.cls-4{fill:#686565;}.cls-5,.cls-6{opacity:0.07;}.cls-8{fill:#64348a;}.cls-9{fill:#fffdfd;}.cls-10{fill:#272838;}</style></defs><g id="Capa_2" data-name="Capa 2"><g id="Capa_1-2" data-name="Capa 1"><path class="cls-1" d="M286.51,148.78s42.26.91,40.44,42.27-10.34,92.44-10.34,92.44-5.17,21.59-30.1,23.71L247,302.34l14.59-66.9s22.81-26.76-.3-66.59Z"/><path class="cls-1" d="M215.42,195.41c-16.72,14.9-47.38,11-47.38,11-27.91-16.12-44.45,2.13-44.45,2.13-3.51,6.06-5,11.43-5.2,16.17-.71,20.68,24.66,29.13,24.66,29.13l1.22,21.9-34.38,2.09-15.49,1a7.84,7.84,0,0,0-1.19,1.54c-7.42,11.47-34.94,76.4-34.08,91.81.91,16.42,10.94,22.2,19.76,26.15s27.37-3.65,32.84-9.73,18.85-44.09,18.85-44.09c15.82-31.32,34.36-36.49,34.36-36.49L140.92,414c18.86,56.26,61.12,7.6,61.12,7.6l38.31-103.38c16.73-70.55,26.76-95.79,26.76-95.79,13.38-24-7.29-52.3-7.29-52.3s-59.3,34.06-110.69-9.12l-18.85-12.77S105,172.61,93.49,188.42l2.13,88.79"/><path class="cls-2" d="M17.77,247.56s34.06,9.88,52,29c0,0,57.5-4.68,74.36-3.4l-5.34-103.63-73,2.12L10.47,140.37S18.38,197.24,17.77,247.56Z"/><ellipse class="cls-1" cx="17.07" cy="193.73" rx="16.57" ry="19"/><path class="cls-3" d="M260.67,239.56s-34,41-117.62,14.23c0,0-29.05-8-26.09-34.32,0,0,4.28-17.66,23.81-19.39"/><path class="cls-4" d="M173.19,206.75S192,233.46,180.75,262l10,.84s9.43-30.18-6.38-56.11Z"/><path class="cls-4" d="M199.33,203.92s27.2,26,32,53.46l8.19-3.23s-8.57-37.24-30.77-54.07Z"/><path class="cls-4" d="M156.32,346S186,363.69,224.1,362.11l-3.77,10.18s-43,1.41-66.65-14.6Z"/><path class="cls-4" d="M138.62,330.84s-43.87-12-56.21-28.58L77.3,312.48s23.32,23.45,57,25.1Z"/><path class="cls-4" d="M71.53,328.64s31.89,20.57,57.48,20.15l-3.86,10.37s-40.6-6.51-57-21.58Z"/><path class="cls-4" d="M151.41,367.72s38.41,23.18,64.89,15.44l-3.55,9.59s-22.93,8-63.7-14.61Z"/><path class="cls-5" d="M62.19,384.32s26.18,9.58,40-23.54,22.77-54.82,46.88-62.7c0,0,11.09-.4,14.64,6.31s1.25,3.53,1.25,3.53l-1.64-.72s-28.8,15.94-43.38,65.12c0,0-3.49,28.68-38.42,26.71A34.13,34.13,0,0,1,62.19,384.32Z"/><path class="cls-5" d="M147.43,428.27s30.8,3.88,35.95-18.2,15.8-62.7,28.81-85.57l16.43-66.25s19.73-2.8,31.23-13.82c0,0-31.14,120.7-40.44,130.34,0,0-13.69,53.24-25.83,54.91C193.58,429.68,168.64,455.14,147.43,428.27Z"/><path class="cls-5" d="M.5,193.73s16.27,18.29,33.14,0c0,0,1,16.23-16.87,18.29S.5,193.73.5,193.73Z"/><polygon class="cls-5" points="62.19 170.17 68.19 274.98 71.81 276.6 65.82 171.69 62.19 170.17"/><polygon class="cls-5" points="47.76 212.17 45.74 259.16 68.19 274.98 65.23 223.39 47.76 212.17"/><line class="cls-6" x1="68.94" y1="226.38" x2="91.53" y2="226.38"/><path class="cls-5" d="M317.17,257.38s.34,38.73-32.42,27.68c0,0-15.77-4.69-3.94-50.26L289.09,177s6.1-21.86,17.25-23.15l-19.83-5.09-25.24,20.07s15.87,31.67,8.64,48.31S247,302.34,247,302.34s49.3,11.6,61.87-5.4S317.17,257.38,317.17,257.38Z"/><path class="cls-7" d="M144.13,201.31s-19-3.33-24.95,17.42,17.11,33,23.87,35.06S144.13,201.31,144.13,201.31Z"/><path class="cls-5" d="M118.52,222.78S184.2,268.72,243,228c0,0,19.72-28.89,11.44-40.33S237,179.78,237,179.78l22.78-9.61s31.63,32.86-6.62,74.66-121.95,2.73-121.95,2.73S118.31,241.34,118.52,222.78Z"/><path class="cls-8" d="M130.28,148.28,125,153.5s32.89,34.35,58.41,34.35c0,0,53.16,11,81.23-9.59l-3.34-9.41Z"/><ellipse class="cls-9" cx="208.73" cy="91.71" rx="97" ry="91.21"/><circle class="cls-10" cx="194.79" cy="87.72" r="69.82"/><path class="cls-5" d="M126.68,140.37s50.73,42,102.73,20.68c0,0,62.56-19.72,67.46-107.47,0,0,27.41,48.5-11.06,93.5,0,0-28.32,42-92.23,34.66C193.58,181.74,157.45,180.51,126.68,140.37Z"/><ellipse class="cls-1" cx="292.69" cy="98.49" rx="24.59" ry="25.77"/><path class="cls-5" d="M268.1,100.54c.31,2.06,35.64,30.16,47.89-10.31,0,0,7.69,26.05-16.18,32.93S268.1,100.54,268.1,100.54Z"/><ellipse class="cls-7" cx="164.27" cy="49.56" rx="16.08" ry="11" transform="translate(-2.77 88.78) rotate(-30)"/><circle class="cls-7" cx="145.38" cy="76.24" r="6.63"/><circle class="cls-7" cx="191.68" cy="38.22" r="5.66"/></g></g></svg>