<svg xmlns="http://www.w3.org/2000/svg" viewBox="0 0 555.32 574.5"><defs><style>.cls-1{fill:#0b0c0c;opacity:0.08;}.cls-12,.cls-2{fill:#fff;}.cls-2,.cls-4,.cls-5,.cls-6,.cls-7{stroke:#000;stroke-miterlimit:10;stroke-width:0.5px;}.cls-11,.cls-3,.cls-8{fill:#363b56;}.cls-10,.cls-3{opacity:0.07;}.cls-4{fill:#d3d3d3;}.cls-5{fill:#64358b;}.cls-6{fill:#696565;}.cls-7{fill:none;}.cls-8{opacity:0.14;}.cls-9{opacity:0.13;}.cls-11{opacity:0.1;}.cls-13{fill:#272838;}</style></defs><g id="Capa_2" data-name="Capa 2"><g id="Capa_1-2" data-name="Capa 1"><ellipse class="cls-1" cx="155.5" cy="542.3" rx="121.65" ry="32.2"/><rect class="cls-2" x="33.24" y="126.87" width="235.88" height="222.75" rx="12"/><rect class="cls-3" x="49.41" y="156.52" width="204.93" height="163.46" rx="22.14"/><path class="cls-4" d="M371.22,36.52c0-1.54-5.83-14.11,7.36-16.57s7.36,16.57,7.36,16.57L387.22,524H373.07Z"/><path class="cls-5" d="M387.22,127.47s33.68-17.94,80.84-3.32,87-5.74,87-5.74V35.14s-52.93,19.92-83.92,12.62-17.84-13.29-85.19-6Z"/><path class="cls-2" d="M89.14,175.63s-4.57,4-10.17,8.94c0,0-37.78,9.8-66.47,70.67v10.5S-2.19,281.83.6,304.92s-6.29,64.37,25.89,77c0,0,11.9,8.39,9.1-28.69,0,0,8.4,16.79,18.19,9.09,0,0,7-1.81,4.45-33.15,0,0,5.11-2.55,8.31-35.8l1.6-22.7L65.9,491.87s-24.19,5.76-21.21,48.92H135V385.41s14.7,10.87,32.29,2.56V540.79h89.83s7-36.77-23-47.32l-.32-228.27s31,43.16,101,32.29c0,0,11.19-8.63,23.66-12.46,0,0,37.72,1.91,49.23-18.23,0,0,13.75-32.29-13.74-43.48l-39.65,2.24s-13.42,6.39-22.7,5.76-40.92,6.07-75.45-24-49.36-33.61-49.36-33.61S127.4,177.5,89.14,175.63Z"/><path class="cls-6" d="M14.2,265.67s43.42,18.3,54.65,20.5l-1.12,13.47A497.21,497.21,0,0,1,7.37,277.75,58.82,58.82,0,0,1,14.2,265.67Z"/><path class="cls-6" d="M64.62,319s-55.4-1.25-61.7-2.21v13.75h57A44.54,44.54,0,0,0,64.62,319Z"/><path class="cls-6" d="M333.28,232.74s-9.59,31.65,3.2,66.17a62.33,62.33,0,0,1,20-11.21s-30-34.18-.55-60.72Z"/><path class="cls-7" d="M373.2,285.94s-3.79-1.09-5.07-27.63,10.25-32.59,10.25-32.59"/><path class="cls-7" d="M67.6,493.3S98.3,483.06,121,518.55"/><path class="cls-7" d="M235.77,494.89s-23.34-7.35-40.92,21.1"/><polygon class="cls-6" points="46.15 535.17 136.66 533.58 136.66 542.21 46.4 542.21 46.15 535.17"/><polygon class="cls-6" points="168.95 531.98 259.5 533.58 258.79 542.21 168.95 542.21 168.95 531.98"/><path class="cls-6" d="M68.85,370.29s25.61-1,41.27,3.44S136.66,398,136.66,398V386.83s-5.12-11.19-28.13-24c0,0-7.82-7.13-39.53-7.69Z"/><path class="cls-6" d="M169,389.39s20.46-23.66,33.89-28.45,32.74-2.26,32.74-2.26v11.53a61.41,61.41,0,0,0-33.32,3.49c-18,7.06-33.31,22.09-33.31,22.09Z"/><polygon class="cls-6" points="68.44 410.49 136.66 413.37 136.66 422.96 68.34 420.08 68.44 410.49"/><polygon class="cls-6" points="168.95 411.77 235.58 409.21 235.58 419.44 168.95 419.44 168.95 411.77"/><line class="cls-6" x1="67.88" y1="465.8" x2="136.66" y2="464.52"/><line class="cls-6" x1="168.95" y1="465.8" x2="235.58" y2="464.52"/><rect class="cls-2" x="94.69" y="210.6" width="114.38" height="63.67" rx="12"/><path class="cls-8" d="M114.15,366.16,114,542.21h22.66V386.83S127.06,371.78,114.15,366.16Z"/><path class="cls-8" d="M58.85,332.24s-13.09-46,11.21-66.43l-1.55,83.93Z"/><path class="cls-9" d="M378.38,225.72c-.34,0-19.52,7.56-5.18,59.69l-5.13.52s-6.13-35.81-.91-59Z"/><path class="cls-10" d="M221.34,229.86S271.77,288,330.45,273l5.45,25.05S292.38,322.9,223,259.88Z"/><polygon class="cls-10" points="222.98 259.88 235.44 270.51 235.51 491.93 222.98 491.93 222.98 259.88"/><path class="cls-11" d="M180,377.77s-33.15,10.39-52.66-1.86c0,0,8.2,7.75,9.29,10.92,0,0,13.5,10.75,32.29,2.56Z"/><path class="cls-8" d="M168.79,388.64l-.09,153.57h14.47V406.67S177,393.54,168.79,388.64Z"/><ellipse class="cls-11" cx="128.92" cy="243.24" rx="11.26" ry="13.38"/><path class="cls-11" d="M35.29,382.89s5.29-5.87,3.2-24.84c0,0,6.49,11.52,11.5,9.76,0,0,3.26-8-12.45-19.46S35.29,382.89,35.29,382.89Z"/><ellipse class="cls-11" cx="182.27" cy="308.6" rx="18.45" ry="18.84"/><ellipse class="cls-5" cx="177.85" cy="308.6" rx="17" ry="18.42"/><ellipse class="cls-12" cx="173.91" cy="306.97" rx="9.26" ry="11.32"/><ellipse class="cls-13" cx="125.33" cy="242.43" rx="11.33" ry="13.76"/><ellipse class="cls-12" cx="124.43" cy="240.6" rx="6.3" ry="7.32"/><ellipse class="cls-11" cx="183.17" cy="242.43" rx="11.26" ry="13.38"/><ellipse class="cls-13" cx="180.28" cy="242.07" rx="11.33" ry="13.76"/><ellipse class="cls-12" cx="177.85" cy="242.07" rx="6.3" ry="7.32"/><ellipse class="cls-11" cx="128.41" cy="309.94" rx="18.45" ry="18.84"/><ellipse class="cls-5" cx="125.33" cy="308.6" rx="17" ry="18.42"/><ellipse class="cls-12" cx="123.26" cy="306.97" rx="9.26" ry="11.32"/><path class="cls-5" d="M221.34,180.92s-11.83,12-41.56,15.55S95.3,195.05,79,184.57l10.16-8.94,117.63-1.9Z"/><path class="cls-2" d="M246.08,75.49h13.35s14.7,25.85-2.56,59.42H242.46L245.77,74"/><path class="cls-10" d="M251.39,134.59s5.91-47.52-.54-58.81h-9.28l.54,59.13Z"/><path class="cls-2" d="M53.68,130.79l-13.32.61s-15.89-25.14-.19-59.47l14.4-.67-.5,61"/><path class="cls-10" d="M47.81,71.58s-5.91,47.52.55,58.81h9.27l-.54-59.13Z"/><path class="cls-2" d="M53.39,132.11s25.19,63,95.16,61.58,93.06-56.68,95.16-61.58c0,0,28-84.66-53.18-126.64,0,0-102.86-32.89-137.14,66.47C53.39,71.94,45.69,92.93,53.39,132.11Z"/><ellipse class="cls-13" cx="150.19" cy="96.98" rx="81.98" ry="75.61"/><path class="cls-12" d="M96.73,90.74c3.91-5.19,25.86-33.45,42.36-36.54a2.39,2.39,0,0,0,1.63-1.09c1.46-2.42,4.38-9-4.3-12.12-10.31-3.76-34.55,13.14-36.61,14.6l-.28.17A21.94,21.94,0,0,0,88,78c1.11,10.85,4.36,13.26,6.4,13.66A2.35,2.35,0,0,0,96.73,90.74Z"/><circle class="cls-12" cx="92.86" cy="110.34" r="7.26"/></g></g></svg>